<?xml version="1.0" encoding="utf-8"?>
<!-- Generator: Adobe Illustrator 24.3.0, SVG Export Plug-In . SVG Version: 6.00 Build 0)  -->
<svg version="1.1" id="Слой_1" xmlns="http://www.w3.org/2000/svg" xmlns:xlink="http://www.w3.org/1999/xlink" x="0px" y="0px"
	 viewBox="0 0 204 34" style="enable-background:new 0 0 204 34;" xml:space="preserve">
<style type="text/css">
	.st0{fill:#D91C18;}
	.st1{fill:#214480;}
</style>
<g>
	<polygon class="st0" points="10.8,18.9 22.1,18.9 22.1,14.7 10.8,14.7 10.8,11.8 23.4,11.8 23.4,7.5 6.2,7.5 6.2,26.4 23.9,26.4 
		23.9,22.1 10.8,22.1 	"/>
	<path class="st0" d="M31.5,22.2v-3.5h8.3c1.1,0,1.8,0.7,1.8,1.7s-0.7,1.7-1.9,1.7L31.5,22.2L31.5,22.2z M39.1,14.6h-7.6v-2.9h7.3
		c1.4,0,1.6,1,1.6,1.5C40.4,13.9,39.9,14.6,39.1,14.6L39.1,14.6z M43.7,15.8c0.8-0.7,1.2-1.8,1.2-3.1c0-3.1-2.4-5.2-5.9-5.2H26.8
		v18.9h13c3.5,0,6.3-2.6,6.3-6C46.2,18.3,45.3,16.8,43.7,15.8L43.7,15.8z"/>
	<path class="st0" d="M53.3,11.8h6.3c2,0,3.4,1.3,3.4,3.2c0,1.9-1.3,3.1-3.4,3.1h-6.3V11.8L53.3,11.8z M59.8,7.5H48.7v18.9h4.6v-4.1
		h6.5c4.6,0,7.8-3,7.8-7.3C67.6,10.7,64.3,7.5,59.8,7.5L59.8,7.5z"/>
	<path class="st0" d="M79.8,22.9c-3.5,0-5.9-2.4-5.9-5.9c0-3.5,2.4-5.9,5.9-5.9s5.9,2.4,5.9,5.9C85.8,20.5,83.4,22.9,79.8,22.9
		L79.8,22.9z M79.8,7.1c-6,0-10.6,4.3-10.6,9.9s4.5,9.9,10.6,9.9c6,0,10.6-4.3,10.6-9.9C90.4,11.4,85.9,7.1,79.8,7.1L79.8,7.1z"/>
	<polygon class="st1" points="92.5,26.4 97.1,26.4 97.1,11.7 106.5,11.7 106.5,26.4 111.2,26.4 111.2,7.5 92.5,7.5 	"/>
	<path class="st1" d="M124.1,22.9c-3.5,0-5.9-2.4-5.9-5.9c0-3.5,2.4-5.9,5.9-5.9c3.5,0,5.9,2.4,5.9,5.9
		C130,20.5,127.6,22.9,124.1,22.9L124.1,22.9z M124.1,7.1c-6,0-10.6,4.3-10.6,9.9s4.5,9.9,10.6,9.9c6,0,10.6-4.3,10.6-9.9
		C134.7,11.4,130.1,7.1,124.1,7.1L124.1,7.1z"/>
	<path class="st1" d="M150.4,18.2h-5.7c-2.3,0-3.5-1.2-3.5-3.6V7.5h-4.6V15c0,4.5,3,7.5,7.5,7.5h6.3v4h4.6V7.5h-4.6L150.4,18.2
		L150.4,18.2z"/>
	<polygon class="st1" points="176.7,7.5 157.1,7.5 157.1,11.7 164.6,11.7 164.6,26.4 169.2,26.4 169.2,11.7 176.7,11.7 	"/>
	<path class="st1" d="M182.4,19.5l3.2-7.8h1.1l3.1,7.8H182.4L182.4,19.5z M189.8,7.5h-7.1l-8.2,18.9h5l1.2-2.8h11.1l1.2,2.8h4.9
		L189.8,7.5L189.8,7.5z"/>
</g>
</svg>
