<svg viewBox="282.1183 176.577 563.5413 312.34" width="5000" height="2771.2254629784898" xmlns="http://www.w3.org/2000/svg" xmlns:xlink="http://www.w3.org/1999/xlink" preserveAspectRatio="none"><defs></defs><style>.a3wT-cZ0ycolors-0 {fill:#7A63FF;fill-opacity:1;}.a3wT-cZ0ycolors-1 {fill:#74E0EF;fill-opacity:1;}.a3wT-cZ0ycolors-2 {fill:#FFFFFF;fill-opacity:1;}.a3wT-cZ0ycolors-3 {fill:#969696;fill-opacity:1;}.a3wT-cZ0ycolors-4 {fill:#C1F7FF;fill-opacity:1;}.a3wT-cZ0ycolors-5 {fill:#EF75FD;fill-opacity:1;}.a3wT-cZ0ycolors-6 {fill:#555555;fill-opacity:1;}.a3wT-cZ0ycolors-7 {fill:#B4B4B4;fill-opacity:1;}.a6izo4zJpcolor {fill:#E7E7E7;fill-opacity:1;}.aa1xcMVhJ0Z0filter-floo {flood-color:#E7E7E7;flood-opacity:0.5;}.ashadowfCCsZj1Gcm-floo {flood-color:#7A63FF;flood-opacity:0.5;}.companyName {fill:#E7E7E7;fill-opacity:1;}.icon3-str {stroke:#FFFFFF;stroke-opacity:1;}</style><defs>
      <filter
        x="339.1397"
        y="462.917"
        width="452.9619"
        height="26"
        id="a1xcMVhJ0Z"
        filterUnits="userSpaceOnUse"
        primitiveUnits="userSpaceOnUse"
        color-interpolation-filters="sRGB">
        <feMerge><feMergeNode in="SourceGraphic" /></feMerge>
      </filter>
      <filter
        x="418.0225"
        y="176.577"
        width="262.3889"
        height="154.0555"
        id="NxsPB0MWP"
        filterUnits="userSpaceOnUse"
        primitiveUnits="userSpaceOnUse"
        color-interpolation-filters="sRGB">
        
    <feGaussianBlur in="SourceGraphic" stdDeviation="0"/>
    <feOffset dx="4" dy="4" result="aCPr8GshaZD"/>
    <feFlood flood-color="#7A63FF" flood-opacity="0.5" in="aCPr8GshaZD" />
    <feComposite  in2="aCPr8GshaZD" operator="in" result="sBBXMOJfquE"/><feMerge result="IfEFpBNlgNs"><feMergeNode in="sBBXMOJfquE" /><feMergeNode in="SourceGraphic" /></feMerge>
      </filter></defs><g opacity="1" transform="rotate(0 339.1397 462.917)">
<svg width="452.9619" height="26" x="339.1397" y="462.917" version="1.1" preserveAspectRatio="none" viewBox="2.72 -30.16 664.72 38.16">
  <g transform="matrix(1 0 0 1 0 0)" class="a6izo4zJpcolor"><path id="id-6izo4zJp25" d="M16.08 0.32Q11.92 0.32 8.92-1.16Q5.92-2.64 4.32-5.30Q2.72-7.96 2.72-11.48L2.72-11.48Q2.72-16.16 4.84-20Q6.96-23.84 10.86-26.08Q14.76-28.32 19.88-28.32L19.88-28.32Q23.36-28.32 26.04-27.18Q28.72-26.04 30.16-23.96L30.16-23.96L27.28-21.48Q24.76-24.76 19.60-24.76L19.60-24.76Q15.72-24.76 12.80-23Q9.88-21.24 8.30-18.26Q6.72-15.28 6.72-11.72L6.72-11.72Q6.72-7.84 9.22-5.54Q11.72-3.24 16.36-3.24L16.36-3.24Q21.52-3.24 24.84-6.56L24.84-6.56L27.16-3.92Q25.24-1.84 22.38-0.76Q19.52 0.32 16.08 0.32L16.08 0.32Z M45.16-21.40Q49.52-21.40 52.10-18.96Q54.68-16.52 54.68-12L54.68-12Q54.68-11.36 54.64-11L54.64-11L37.12-7.76Q37.88-3.12 43.72-3.12L43.72-3.12Q45.72-3.12 47.44-3.76Q49.16-4.40 50.28-5.56L50.28-5.56L51.92-2.80Q50.36-1.32 48.14-0.54Q45.92 0.24 43.40 0.24L43.40 0.24Q40.28 0.24 38-0.88Q35.72-2 34.48-4.08Q33.24-6.16 33.24-8.96L33.24-8.96Q33.24-12.48 34.78-15.32Q36.32-18.16 39.02-19.78Q41.72-21.40 45.16-21.40L45.16-21.40ZM45.04-18.20Q41.80-18.20 39.64-16.12Q37.48-14.04 37.08-10.56L37.08-10.56L51.12-13.16Q50.92-15.56 49.28-16.88Q47.64-18.20 45.04-18.20L45.04-18.20Z M74.44-21.40Q79.00-21.40 81.60-18.92Q84.20-16.44 84.20-12.08L84.20-12.08Q84.20-8.64 82.58-5.82Q80.96-3 78.18-1.38Q75.40 0.24 72.04 0.24L72.04 0.24Q69.52 0.24 67.56-0.70Q65.60-1.64 64.48-3.32L64.48-3.32L62.32 7.76L58.48 7.76L62.12-10.92Q63.08-15.76 66.32-18.58Q69.56-21.40 74.44-21.40L74.44-21.40ZM71.88-3.12Q74.32-3.12 76.24-4.28Q78.16-5.44 79.22-7.44Q80.28-9.44 80.28-11.88L80.28-11.88Q80.28-14.84 78.68-16.44Q77.08-18.04 74.20-18.04L74.20-18.04Q71.72-18.04 69.80-16.86Q67.88-15.68 66.84-13.68Q65.80-11.68 65.80-9.32L65.80-9.32Q65.80-6.40 67.40-4.76Q69.00-3.12 71.88-3.12L71.88-3.12Z M107.28-10.92Q108.92-10.44 109.72-9.38Q110.52-8.32 110.52-6.60L110.52-6.60Q110.52-3.52 108.02-1.76Q105.52 0 101.12 0L101.12 0L90.72 0L95.00-21.20L104.68-21.20Q108.12-21.20 109.94-19.96Q111.76-18.72 111.76-16.36L111.76-16.36Q111.76-14.44 110.58-13.02Q109.40-11.60 107.28-10.92L107.28-10.92ZM98.12-18.24L96.92-12.08L102.68-12.08Q105.00-12.08 106.42-13.08Q107.84-14.08 107.84-15.68L107.84-15.68Q107.84-18.24 103.96-18.24L103.96-18.24L98.12-18.24ZM101.24-2.96Q103.84-2.96 105.32-3.96Q106.80-4.96 106.80-6.76L106.80-6.76Q106.80-8.08 105.86-8.70Q104.92-9.32 102.88-9.32L102.88-9.32L96.36-9.32L95.12-2.96L101.24-2.96Z M138.12-21.20L141.96-21.20L137.76 0L134.08 0L134.60-2.72Q133.16-1.24 131.22-0.50Q129.28 0.24 127.00 0.24L127.00 0.24Q123.48 0.24 121.44-1.64Q119.40-3.52 119.40-6.88L119.40-6.88Q119.40-8 119.64-9.32L119.64-9.32L122.00-21.20L125.84-21.20L123.48-9.28Q123.28-8.20 123.28-7.48L123.28-7.48Q123.28-5.40 124.50-4.30Q125.72-3.20 128.12-3.20L128.12-3.20Q131.16-3.20 133.18-4.92Q135.20-6.64 135.88-9.96L135.88-9.96L138.12-21.20Z M158.64 0.24Q155.60 0.24 153.32-0.90Q151.04-2.04 149.80-4.10Q148.56-6.16 148.56-8.92L148.56-8.92Q148.56-12.48 150.16-15.32Q151.76-18.16 154.60-19.78Q157.44-21.40 161.04-21.40L161.04-21.40Q167.32-21.40 169.76-16.80L169.76-16.80L166.52-15Q164.84-18.04 160.76-18.04L160.76-18.04Q158.40-18.04 156.50-16.90Q154.60-15.76 153.52-13.72Q152.44-11.68 152.44-9.08L152.44-9.08Q152.44-6.28 154.10-4.70Q155.76-3.12 158.80-3.12L158.80-3.12Q160.72-3.12 162.38-3.88Q164.04-4.64 165.12-6.12L165.12-6.12L167.92-4.12Q166.44-2.08 163.96-0.92Q161.48 0.24 158.64 0.24L158.64 0.24Z M193.16-21.20L212.80-21.20L208.56 0L204.72 0L208.20-17.84L196.28-17.84L192.76 0L188.92 0L193.16-21.20Z M229.32 0.24Q226.32 0.24 224.08-0.90Q221.84-2.04 220.60-4.12Q219.36-6.20 219.36-8.92L219.36-8.92Q219.36-12.48 220.96-15.32Q222.56-18.16 225.40-19.78Q228.24-21.40 231.80-21.40L231.80-21.40Q234.80-21.40 237.04-20.28Q239.28-19.16 240.50-17.10Q241.72-15.04 241.72-12.28L241.72-12.28Q241.72-8.72 240.12-5.86Q238.52-3 235.70-1.38Q232.88 0.24 229.32 0.24L229.32 0.24ZM229.56-3.12Q231.92-3.12 233.82-4.26Q235.72-5.40 236.78-7.44Q237.84-9.48 237.84-12.08L237.84-12.08Q237.84-14.92 236.20-16.48Q234.56-18.04 231.52-18.04L231.52-18.04Q229.16-18.04 227.28-16.90Q225.40-15.76 224.32-13.72Q223.24-11.68 223.24-9.08L223.24-9.08Q223.24-6.28 224.90-4.70Q226.56-3.12 229.56-3.12L229.56-3.12Z M282.36-21.20L286.20-21.20L282.48-2.56Q281.36 3.04 278.46 5.52Q275.56 8 270.48 8L270.48 8Q267.64 8 265.28 7.18Q262.92 6.36 261.32 4.84L261.32 4.84L263.36 1.88Q264.68 3.20 266.60 3.90Q268.52 4.60 270.76 4.60L270.76 4.60Q274.24 4.60 276.06 2.94Q277.88 1.28 278.60-2.40L278.60-2.40L278.84-3.60Q276.00-0.88 271.44-0.88L271.44-0.88Q267.92-0.88 265.88-2.74Q263.84-4.60 263.84-8L263.84-8Q263.84-9.12 264.08-10.44L264.08-10.44L266.24-21.20L270.08-21.20L267.92-10.40Q267.72-9.32 267.72-8.64L267.72-8.64Q267.72-6.56 268.94-5.44Q270.16-4.32 272.56-4.32L272.56-4.32Q275.64-4.32 277.66-6.02Q279.68-7.72 280.36-11.08L280.36-11.08L282.36-21.20Z M314.04-21.20L303.88-10.68L310.04 0L305.96 0L301.40-8.16L293.64 0L289.16 0L299.84-10.96L294.00-21.20L298.00-21.20L302.32-13.52L309.68-21.20L314.04-21.20Z M326.80 0.24Q323.80 0.24 321.56-0.90Q319.32-2.04 318.08-4.12Q316.84-6.20 316.84-8.92L316.84-8.92Q316.84-12.48 318.44-15.32Q320.04-18.16 322.88-19.78Q325.72-21.40 329.28-21.40L329.28-21.40Q332.28-21.40 334.52-20.28Q336.76-19.16 337.98-17.10Q339.20-15.04 339.20-12.28L339.20-12.28Q339.20-8.72 337.60-5.86Q336.00-3 333.18-1.38Q330.36 0.24 326.80 0.24L326.80 0.24ZM327.04-3.12Q329.40-3.12 331.30-4.26Q333.20-5.40 334.26-7.44Q335.32-9.48 335.32-12.08L335.32-12.08Q335.32-14.92 333.68-16.48Q332.04-18.04 329.00-18.04L329.00-18.04Q326.64-18.04 324.76-16.90Q322.88-15.76 321.80-13.72Q320.72-11.68 320.72-9.08L320.72-9.08Q320.72-6.28 322.38-4.70Q324.04-3.12 327.04-3.12L327.04-3.12Z M366.72-21.20L370.36-21.20L366.72-2.88Q365.60 2.80 362.50 5.40Q359.40 8 354.04 8L354.04 8Q351.04 8 348.56 7.22Q346.08 6.44 344.36 5L344.36 5L346.48 2.04Q347.76 3.20 349.82 3.90Q351.88 4.60 354.32 4.60L354.32 4.60Q358.00 4.60 360.02 2.92Q362.04 1.24 362.76-2.28L362.76-2.28L363.08-3.80Q360.04-0.88 355.40-0.88L355.40-0.88Q352.60-0.88 350.46-1.92Q348.32-2.96 347.14-4.92Q345.96-6.88 345.96-9.52L345.96-9.52Q345.96-12.84 347.50-15.56Q349.04-18.28 351.80-19.84Q354.56-21.40 358.04-21.40L358.04-21.40Q360.76-21.40 362.86-20.38Q364.96-19.36 365.96-17.32L365.96-17.32L366.72-21.20ZM356.16-4.24Q358.56-4.24 360.46-5.30Q362.36-6.36 363.42-8.26Q364.48-10.16 364.48-12.56L364.48-12.56Q364.48-15.12 362.82-16.58Q361.16-18.04 358.16-18.04L358.16-18.04Q355.76-18.04 353.86-16.98Q351.96-15.92 350.90-14.02Q349.84-12.12 349.84-9.76L349.84-9.76Q349.84-7.16 351.52-5.70Q353.20-4.24 356.16-4.24L356.16-4.24Z M396.88-21.20L400.72-21.20L397.00-2.56Q395.88 3.04 392.98 5.52Q390.08 8 385.00 8L385.00 8Q382.16 8 379.80 7.18Q377.44 6.36 375.84 4.84L375.84 4.84L377.88 1.88Q379.20 3.20 381.12 3.90Q383.04 4.60 385.28 4.60L385.28 4.60Q388.76 4.60 390.58 2.94Q392.40 1.28 393.12-2.40L393.12-2.40L393.36-3.60Q390.52-0.88 385.96-0.88L385.96-0.88Q382.44-0.88 380.40-2.74Q378.36-4.60 378.36-8L378.36-8Q378.36-9.12 378.60-10.44L378.60-10.44L380.76-21.20L384.60-21.20L382.44-10.40Q382.24-9.32 382.24-8.64L382.24-8.64Q382.24-6.56 383.46-5.44Q384.68-4.32 387.08-4.32L387.08-4.32Q390.16-4.32 392.18-6.02Q394.20-7.72 394.88-11.08L394.88-11.08L396.88-21.20Z M434.08-10.96Q435.88-10.40 436.88-9.26Q437.88-8.12 437.88-6.48L437.88-6.48Q437.88-4.56 436.52-3.02Q435.16-1.48 432.76-0.60Q430.36 0.28 427.36 0.28L427.36 0.28Q422.52 0.28 419.08-2.24L419.08-2.24L420.56-4.96Q421.76-4 423.58-3.50Q425.40-3 427.48-3L427.48-3Q430.40-3 432.22-4.06Q434.04-5.12 434.04-6.76L434.04-6.76Q434.04-8.08 432.90-8.80Q431.76-9.52 429.68-9.52L429.68-9.52L425.84-9.52L426.28-12.32L429.52-12.32Q431.92-12.32 433.38-13.16Q434.84-14 434.84-15.44L434.84-15.44Q434.84-16.72 433.66-17.44Q432.48-18.16 430.32-18.16L430.32-18.16Q428.76-18.16 427.18-17.74Q425.60-17.32 423.68-16.48L423.68-16.48L422.76-19.68Q426.72-21.48 430.64-21.48L430.64-21.48Q434.28-21.48 436.54-20Q438.80-18.52 438.80-16.08L438.80-16.08Q438.80-14.28 437.52-12.92Q436.24-11.56 434.08-10.96L434.08-10.96Z M469.28-3Q470.36-3 471.24-3.36L471.24-3.36L470.84-0.24Q469.64 0.24 468.00 0.24L468.00 0.24Q465.96 0.24 464.64-0.70Q463.32-1.64 463.00-3.28L463.00-3.28Q461.52-1.56 459.46-0.66Q457.40 0.24 454.84 0.24L454.84 0.24Q452.12 0.24 450.00-0.86Q447.88-1.96 446.68-4.04Q445.48-6.12 445.48-8.92L445.48-8.92Q445.48-12.52 447.04-15.36Q448.60-18.20 451.34-19.80Q454.08-21.40 457.48-21.40L457.48-21.40Q460.20-21.40 462.14-20.44Q464.08-19.48 465.12-17.60L465.12-17.60L465.84-21.20L469.68-21.20L466.76-6.48Q466.64-5.88 466.64-5.44L466.64-5.44Q466.64-4.24 467.32-3.62Q468.00-3 469.28-3L469.28-3ZM455.68-3.12Q458.04-3.12 459.94-4.26Q461.84-5.40 462.90-7.44Q463.96-9.48 463.96-12.08L463.96-12.08Q463.96-14.92 462.32-16.48Q460.68-18.04 457.64-18.04L457.64-18.04Q455.28-18.04 453.40-16.90Q451.52-15.76 450.44-13.72Q449.36-11.68 449.36-9.08L449.36-9.08Q449.36-6.28 451.02-4.70Q452.68-3.12 455.68-3.12L455.68-3.12Z M501.88 0.24Q498.88 0.24 496.64-0.90Q494.40-2.04 493.16-4.12Q491.92-6.20 491.92-8.92L491.92-8.92Q491.92-12.48 493.52-15.32Q495.12-18.16 497.96-19.78Q500.80-21.40 504.36-21.40L504.36-21.40Q507.36-21.40 509.60-20.28Q511.84-19.16 513.06-17.10Q514.28-15.04 514.28-12.28L514.28-12.28Q514.28-8.72 512.68-5.86Q511.08-3 508.26-1.38Q505.44 0.24 501.88 0.24L501.88 0.24ZM502.12-3.12Q504.48-3.12 506.38-4.26Q508.28-5.40 509.34-7.44Q510.40-9.48 510.40-12.08L510.40-12.08Q510.40-14.92 508.76-16.48Q507.12-18.04 504.08-18.04L504.08-18.04Q501.72-18.04 499.84-16.90Q497.96-15.76 496.88-13.72Q495.80-11.68 495.80-9.08L495.80-9.08Q495.80-6.28 497.46-4.70Q499.12-3.12 502.12-3.12L502.12-3.12Z M535.60-19.72Q539.64-19.72 541.92-17.52Q544.20-15.32 544.20-11.44L544.20-11.44Q544.20-8.08 542.56-5.40Q540.92-2.72 538.04-1.18Q535.16 0.36 531.56 0.36L531.56 0.36Q526.92 0.36 524.36-2.32Q521.80-5 521.80-10.12L521.80-10.12Q521.80-14.48 523.58-18.30Q525.36-22.12 528.56-24.72Q531.76-27.32 535.92-28.16L535.92-28.16L545.96-30.16L546.00-26.92L536.80-25.04Q532.88-24.24 530.24-21.84Q527.60-19.44 526.40-15.60L526.40-15.60Q530.04-19.72 535.60-19.72L535.60-19.72ZM531.76-2.60Q534.08-2.60 536.00-3.68Q537.92-4.76 539.00-6.62Q540.08-8.48 540.08-10.72L540.08-10.72Q540.08-13.44 538.56-14.88Q537.04-16.32 534.24-16.32L534.24-16.32Q532.00-16.32 530.02-15.28Q528.04-14.24 526.84-12.54Q525.64-10.84 525.64-8.96L525.64-8.96Q525.64-6 527.28-4.30Q528.92-2.60 531.76-2.60L531.76-2.60Z M570.84-21.20L574.68-21.20L570.96-2.56Q569.84 3.04 566.94 5.52Q564.04 8 558.96 8L558.96 8Q556.12 8 553.76 7.18Q551.40 6.36 549.80 4.84L549.80 4.84L551.84 1.88Q553.16 3.20 555.08 3.90Q557.00 4.60 559.24 4.60L559.24 4.60Q562.72 4.60 564.54 2.94Q566.36 1.28 567.08-2.40L567.08-2.40L567.32-3.60Q564.48-0.88 559.92-0.88L559.92-0.88Q556.40-0.88 554.36-2.74Q552.32-4.60 552.32-8L552.32-8Q552.32-9.12 552.56-10.44L552.56-10.44L554.72-21.20L558.56-21.20L556.40-10.40Q556.20-9.32 556.20-8.64L556.20-8.64Q556.20-6.56 557.42-5.44Q558.64-4.32 561.04-4.32L561.04-4.32Q564.12-4.32 566.14-6.02Q568.16-7.72 568.84-11.08L568.84-11.08L570.84-21.20Z M597.60-10.92Q599.24-10.44 600.04-9.38Q600.84-8.32 600.84-6.60L600.84-6.60Q600.84-3.52 598.34-1.76Q595.84 0 591.44 0L591.44 0L581.04 0L585.32-21.20L595.00-21.20Q598.44-21.20 600.26-19.96Q602.08-18.72 602.08-16.36L602.08-16.36Q602.08-14.44 600.90-13.02Q599.72-11.60 597.60-10.92L597.60-10.92ZM588.44-18.24L587.24-12.08L593.00-12.08Q595.32-12.08 596.74-13.08Q598.16-14.08 598.16-15.68L598.16-15.68Q598.16-18.24 594.28-18.24L594.28-18.24L588.44-18.24ZM591.56-2.96Q594.16-2.96 595.64-3.96Q597.12-4.96 597.12-6.76L597.12-6.76Q597.12-8.08 596.18-8.70Q595.24-9.32 593.20-9.32L593.20-9.32L586.68-9.32L585.44-2.96L591.56-2.96Z M617.72 0.48Q613.84 0.48 611.74-1.20Q609.64-2.88 609.64-6L609.64-6Q609.64-7.20 609.84-8.08L609.84-8.08L612.44-21.20L616.28-21.20L614.64-13Q616.20-14.12 617.82-14.64Q619.44-15.16 621.40-15.16L621.40-15.16Q625-15.16 626.88-13.54Q628.76-11.92 628.76-8.80L628.76-8.80Q628.76-6.08 627.38-3.98Q626-1.88 623.48-0.70Q620.96 0.48 617.72 0.48L617.72 0.48ZM618.08-2.40Q620-2.40 621.56-3.18Q623.12-3.96 624-5.32Q624.88-6.68 624.88-8.36L624.88-8.36Q624.88-10.32 623.66-11.36Q622.44-12.40 620.20-12.40L620.20-12.40Q618.28-12.40 616.68-11.64Q615.08-10.88 613.96-9.48L613.96-9.48L613.60-7.64Q613.48-6.92 613.48-6.32L613.48-6.32Q613.48-4.44 614.68-3.42Q615.88-2.40 618.08-2.40L618.08-2.40Z M657.68-21.40Q660.60-21.40 662.82-20.28Q665.04-19.16 666.24-17.10Q667.44-15.04 667.44-12.32L667.44-12.32Q667.44-8.76 665.86-5.90Q664.28-3.04 661.48-1.40Q658.68 0.24 655.16 0.24L655.16 0.24Q652.24 0.24 650.02-0.90Q647.80-2.04 646.60-4.10Q645.40-6.16 645.40-8.88L645.40-8.88L645.40-8.96L641.12-8.96L639.32 0L635.48 0L639.68-21.20L643.52-21.20L641.80-12.52L645.88-12.52Q646.96-16.52 650.16-18.96Q653.36-21.40 657.68-21.40L657.68-21.40ZM655.44-3.12Q657.76-3.12 659.60-4.26Q661.44-5.40 662.50-7.46Q663.56-9.52 663.56-12.12L663.56-12.12Q663.56-14.92 661.94-16.48Q660.32-18.04 657.40-18.04L657.40-18.04Q655.08-18.04 653.24-16.90Q651.40-15.76 650.34-13.70Q649.28-11.64 649.28-9.04L649.28-9.04Q649.28-6.24 650.88-4.68Q652.48-3.12 655.44-3.12L655.44-3.12Z"/></g>
</svg>
</g><g opacity="1" transform="rotate(0 282.1183 350.3586)">
<svg width="563.5413" height="85" x="282.1183" y="350.3586" version="1.1" preserveAspectRatio="none" viewBox="1.42 -28.3984 190.8651 28.7891">
  <g transform="matrix(1 0 0 1 0 0)" class="companyName"><path id="id-D6z1nYkh6" d="M26.91-26.48L26.91-26.48Q27.21-25.80 27.09-25.05Q26.97-24.30 26.46-23.77L26.46-23.77L9.71-5.08L26.88-5.08L26.88 0L3.98 0Q3.24 0 2.61-0.42Q1.97-0.84 1.66-1.52L1.66-1.52Q1.33-2.21 1.46-2.95Q1.58-3.69 2.07-4.24L2.07-4.24L18.87-22.93L1.66-22.93L1.66-28.01L24.59-28.01Q25.33-28.01 25.97-27.59Q26.60-27.17 26.91-26.48Z M58.96-25.45L58.96 0L53.89 0L53.89-6.88L36.04-6.88L36.04 0L30.96 0L30.96-14.00Q30.96-17.07 32.01-19.65Q33.07-22.23 34.94-24.08Q36.82-25.94 39.38-26.97Q41.93-28.01 44.96-28.01L44.96-28.01L56.41-28.01Q56.93-28.01 57.40-27.81Q57.87-27.62 58.22-27.27Q58.57-26.91 58.77-26.45Q58.96-25.98 58.96-25.45L58.96-25.45ZM36.04-14.00L36.04-11.95L53.89-11.95L53.89-22.93L44.96-22.93Q44.73-22.93 43.97-22.86Q43.22-22.79 42.24-22.52Q41.25-22.25 40.16-21.68Q39.06-21.11 38.14-20.12Q37.23-19.12 36.63-17.63Q36.04-16.13 36.04-14.00L36.04-14.00Z M92.85-28.01L92.85-2.17Q92.85-1.62 92.65-1.15Q92.44-0.68 92.10-0.34Q91.76 0 91.29 0.20Q90.82 0.39 90.29 0.39L90.29 0.39Q89.82 0.39 89.35 0.21Q88.87 0.04 88.50-0.35L88.50-0.35L69.94-19.73L69.94 0L64.86 0L64.86-25.84Q64.86-26.62 65.30-27.26Q65.74-27.89 66.43-28.20L66.43-28.20Q67.15-28.50 67.91-28.35Q68.67-28.20 69.22-27.64L69.22-27.64L87.77-8.28L87.77-28.01L92.85-28.01Z M128.14-16.68L128.14-11.33Q128.14-8.77 127.27-6.62Q126.39-4.47 124.82-2.91Q123.26-1.35 121.12-0.48Q118.98 0.39 116.46 0.39L116.46 0.39L109.59 0.39Q107.07 0.39 104.92-0.48Q102.77-1.35 101.21-2.91Q99.65-4.47 98.76-6.62Q97.87-8.77 97.87-11.33L97.87-11.33L97.87-16.68Q97.87-19.22 98.76-21.38Q99.65-23.54 101.21-25.09Q102.77-26.64 104.92-27.52Q107.07-28.40 109.59-28.40L109.59-28.40L116.46-28.40Q118.98-28.40 121.12-27.52Q123.26-26.64 124.82-25.09Q126.39-23.54 127.27-21.38Q128.14-19.22 128.14-16.68L128.14-16.68ZM123.07-11.33L123.07-16.68Q123.07-18.18 122.59-19.40Q122.11-20.63 121.24-21.49Q120.37-22.36 119.15-22.84Q117.93-23.32 116.46-23.32L116.46-23.32L109.59-23.32Q108.11-23.32 106.88-22.84Q105.66-22.36 104.79-21.49Q103.91-20.63 103.43-19.40Q102.95-18.18 102.95-16.68L102.95-16.68L102.95-11.33Q102.95-9.82 103.43-8.60Q103.91-7.38 104.79-6.51Q105.66-5.64 106.88-5.17Q108.11-4.69 109.59-4.69L109.59-4.69L116.43-4.69Q117.91-4.69 119.13-5.17Q120.35-5.64 121.23-6.51Q122.11-7.38 122.59-8.60Q123.07-9.82 123.07-11.33L123.07-11.33Z M154.94-28.01L160.61-28.01L147.34-1.00Q147.03-0.37 146.42 0.01Q145.80 0.39 145.06 0.39L145.06 0.39Q144.34 0.39 143.72 0.01Q143.11-0.37 142.77-1.00L142.77-1.00L129.53-28.01L135.21-28.01L145.06-7.83L154.94-28.01Z M192.29-16.68L192.29-11.33Q192.29-8.77 191.41-6.62Q190.53-4.47 188.96-2.91Q187.40-1.35 185.26-0.48Q183.13 0.39 180.61 0.39L180.61 0.39L173.73 0.39Q171.21 0.39 169.06-0.48Q166.91-1.35 165.35-2.91Q163.79-4.47 162.90-6.62Q162.01-8.77 162.01-11.33L162.01-11.33L162.01-16.68Q162.01-19.22 162.90-21.38Q163.79-23.54 165.35-25.09Q166.91-26.64 169.06-27.52Q171.21-28.40 173.73-28.40L173.73-28.40L180.61-28.40Q183.13-28.40 185.26-27.52Q187.40-26.64 188.96-25.09Q190.53-23.54 191.41-21.38Q192.29-19.22 192.29-16.68L192.29-16.68ZM187.21-11.33L187.21-16.68Q187.21-18.18 186.73-19.40Q186.25-20.63 185.38-21.49Q184.51-22.36 183.29-22.84Q182.07-23.32 180.61-23.32L180.61-23.32L173.73-23.32Q172.25-23.32 171.03-22.84Q169.80-22.36 168.93-21.49Q168.05-20.63 167.57-19.40Q167.09-18.18 167.09-16.68L167.09-16.68L167.09-11.33Q167.09-9.82 167.57-8.60Q168.05-7.38 168.93-6.51Q169.80-5.64 171.03-5.17Q172.25-4.69 173.73-4.69L173.73-4.69L180.57-4.69Q182.05-4.69 183.27-5.17Q184.49-5.64 185.37-6.51Q186.25-7.38 186.73-8.60Q187.21-9.82 187.21-11.33L187.21-11.33Z"/></g>
</svg>
</g><g filter="url(#NxsPB0MWP)"><g opacity="1" transform="rotate(0 418.0225 176.577)">
<svg width="258.3889" height="150.0555" x="418.0225" y="176.577" version="1.1" preserveAspectRatio="none" viewBox="2.501835346221924 12.353775024414062 46.99633026123047 27.292449951171875">
  <g transform="matrix(1 0 0 1 0 0)" class="a3wT-cZ0ycolors-0"><g><g><path d="M48.6623764,35.517807H21.8498745c-0.4794922,0-0.9462891-0.09375-1.3876953-0.2783203l-3.90625-1.6333008    c-0.3193359-0.1333008-0.65625-0.2011719-1.0009766-0.2011719H3.2688198c-0.1455078,0-0.2832031-0.0634766-0.3789063-0.1733398    c-0.0947266-0.1098633-0.1367188-0.2558594-0.1162109-0.3994141l1.1972656-8.1206055    c0.2597656-1.7514648,1.7890625-3.0722656,3.5585938-3.0722656h0.1640625c1.2431641,0,2.4023438,0.6640625,3.1005859,1.7768555    c0.5644531,0.8994141,1.3945313,1.3652344,2.4648438,1.3847656c0.1845703,0.0170898,3.6191406,0.2285156,5.7070313-3.2553711    c-2.7734375-4.8266602,1.9228516-9.0249023,1.9716797-9.0673828c0.1777344-0.1577148,0.4423828-0.1665039,0.6328125-0.0209961    l16.227541,12.421875c0.6660156,0.5102539,1.4101563,0.8974609,2.2109375,1.1513672l5.5478516,1.7597656    c1.4970703,0.4746094,2.6972656,1.5146484,3.3789063,2.9277344c0.6748047,1.3974609,0.7460938,3.0297852,0.1933594,4.4780273    C49.0559311,35.3898773,48.8694077,35.517807,48.6623764,35.517807z M3.8479214,32.405014h11.7070313    c0.4775391,0,0.9443359,0.09375,1.3867188,0.2783203c0,0,0,0,0.0009766,0l3.90625,1.6333008    c0.3183594,0.1337891,0.6552734,0.2011719,1.0009766,0.2011719h26.45508    c0.3369141-1.1171875,0.2451172-2.2998047-0.2695313-3.3647461c-0.5615234-1.1630859-1.5488281-2.019043-2.78125-2.409668    l-5.5478516-1.7597656c-0.9111328-0.2890625-1.7578125-0.7299805-2.515625-1.3105469L21.3039761,13.5124359    c-0.9316406,0.9545898-3.59375,4.1655273-1.3339844,7.7617188c0.0966797,0.1542969,0.1015625,0.3491211,0.0136719,0.5083008    c-2.3916016,4.3222656-6.5927734,4.0336914-6.7744141,4.0170898c-1.3779297-0.0239258-2.5166016-0.6650391-3.2626953-1.8515625    c-0.5136719-0.8193359-1.3564453-1.3085938-2.2529297-1.3085938H7.529562c-1.2773438,0-2.3818359,0.9536133-2.5693359,2.2182617    L3.8479214,32.405014z"></path></g><g><path d="M28.2112026,24.3586273c-0.140625,0-0.2802734-0.059082-0.3789063-0.1738281    c-0.0322266-0.0385742-3.3720703-3.8579102-5.9521484-3.6606445c-0.7763672,0.0571289-1.4013672,0.4770508-1.9111328,1.2836914    c-0.1484375,0.2348633-0.4580078,0.3037109-0.6904297,0.1552734c-0.2333984-0.1474609-0.3027344-0.4560547-0.1552734-0.6894531    c0.6826172-1.0786133,1.5849609-1.6665039,2.6845703-1.7470703c3.0898438-0.2275391,6.6337891,3.8330078,6.7822266,4.0058594    c0.1806641,0.2094727,0.15625,0.5249023-0.0527344,0.7050781C28.4426479,24.3185883,28.326437,24.3586273,28.2112026,24.3586273z"></path></g><g><path d="M34.5656967,29.5759125c-0.0722656,0-0.1445313-0.0151367-0.2138672-0.0483398    c-0.25-0.1181641-0.3564453-0.4160156-0.2382813-0.6655273l2.0996094-4.4335938    c0.1191406-0.2509766,0.4179688-0.355957,0.6660156-0.237793c0.25,0.1181641,0.3564453,0.4160156,0.2382813,0.6655273    l-2.0996094,4.4335938C34.9319077,29.4704437,34.7522202,29.5759125,34.5656967,29.5759125z"></path></g><g><path d="M30.7971401,28.4640961c-0.0703125,0-0.140625-0.0146484-0.2089844-0.0454102    c-0.2509766-0.1152344-0.3603516-0.4121094-0.2451172-0.6630859l2.6386738-5.7451172    c0.1152344-0.2519531,0.4101563-0.3588867,0.6630859-0.2460938c0.2509766,0.1152344,0.3603516,0.4121094,0.2451172,0.6630859    l-2.6386738,5.7451172C31.1672573,28.3561859,30.9865932,28.4640961,30.7971401,28.4640961z"></path></g><g><path d="M26.9738979,27.0529633c-0.0703125,0-0.140625-0.0146484-0.2089844-0.0454102    c-0.2509766-0.1157227-0.3603516-0.4121094-0.2451172-0.6630859l3.078125-6.7016602    c0.1152344-0.2514648,0.4101563-0.3598633,0.6630859-0.2460938c0.2509766,0.1157227,0.3603516,0.4121094,0.2451172,0.6630859    l-3.078125,6.7016602C27.3440151,26.9450531,27.1633511,27.0529633,26.9738979,27.0529633z"></path></g><g><path d="M43.4983139,39.646225H7.1301479c-1.3457031,0-2.6230469-0.5844727-3.5029297-1.6035156    s-1.2714844-2.3676758-1.0761719-3.699707l0.2226563-1.5107422c0.0361328-0.2456055,0.2470703-0.4272461,0.4951172-0.4272461    h12.2861328c0.4775391,0,0.9443359,0.09375,1.3867188,0.2783203l3.9072266,1.6333008    c0.3183594,0.1337891,0.6552734,0.2011719,1.0009766,0.2011719h26.8125019c0.1650391,0,0.3203125,0.081543,0.4130859,0.2182617    s0.1123047,0.3105469,0.0527344,0.4643555c-0.0478516,0.1313477-0.0673828,0.1865234-0.0908203,0.2412109l-0.3476563,0.7998047    C47.7912827,38.3097992,45.7531967,39.646225,43.4983139,39.646225z M3.7004604,33.405014l-0.1591797,1.0834961    c-0.1542969,1.0444336,0.1533203,2.1015625,0.8427734,2.9008789c0.6904297,0.7988281,1.6904297,1.2568359,2.7460938,1.2568359    h36.3681641c1.8564453,0,3.5341797-1.1000977,4.2734375-2.8032227l0.1416016-0.3251953H21.8498745    c-0.4794922,0-0.9462891-0.09375-1.3876953-0.2783203l-3.90625-1.6333008    c-0.3193359-0.1333008-0.65625-0.2011719-1.0009766-0.2011719H3.7004604z"></path></g></g></g>
</svg>
</g></g></svg>