<svg width="164" height="32" viewBox="0 0 164 32" fill="none" xmlns="http://www.w3.org/2000/svg"><g clip-path="url(#clip0_1713_12937)"><ellipse cx="15.6873" cy="15.6873" rx="15.6873" ry="15.6873" fill="#FC3F1D"></ellipse><path d="M18.0006 8.76952H16.413C13.6913 8.76952 12.3305 10.1304 12.3305 12.1716C12.3305 14.4397 13.2377 15.5737 15.279 16.9345L16.8666 18.0686L12.3305 25.0995H8.7016L13.0109 18.749C10.516 16.9345 9.15521 15.3469 9.15521 12.3984C9.15521 8.76952 11.6501 6.27466 16.413 6.27466H21.1759V25.0995H18.0006V8.76952Z" fill="white"></path><path d="M42.644 31.8616V27.009H54.3237V31.8616H58.1054V23.8632H55.9301V3.75H42.3763L42.0416 13.3213C41.8743 18.8432 41.4392 22.0895 40.3683 23.8632H38.8623V31.8616H42.644ZM45.589 13.8568L45.8233 6.89582H51.8806V23.8632H44.1834C44.8862 22.2568 45.4217 19.3787 45.589 13.8568Z" fill="white"></path><path d="M66.7049 9.84084C62.3208 9.84084 59.2754 12.9532 59.2754 18.609C59.2754 24.2313 62.3208 27.3437 66.7049 27.3437C71.0889 27.3437 74.1343 24.2313 74.1343 18.5755C74.1343 12.9532 71.0889 9.84084 66.7049 9.84084ZM66.7049 24.1978C64.4961 24.1978 63.3917 22.4911 63.3917 18.609C63.3917 14.6934 64.4961 12.9867 66.7049 12.9867C68.9136 12.9867 70.018 14.6934 70.018 18.5755C70.018 22.4911 68.9136 24.1978 66.7049 24.1978Z" fill="white"></path><path d="M84.0372 27.3437C85.8778 27.3437 87.183 27.009 88.1535 26.3062V23.06C87.1496 23.7628 85.9448 24.1978 84.2715 24.1978C81.4268 24.1978 80.2555 21.9891 80.2555 18.5086C80.2555 14.8608 81.6946 12.9867 84.3049 12.9867C85.8444 12.9867 87.3504 13.5221 88.1535 14.0241V10.644C87.3169 10.1755 85.8444 9.84084 83.8699 9.84084C78.783 9.84084 76.1392 13.4887 76.1392 18.609C76.1392 24.2313 78.7161 27.3437 84.0372 27.3437Z" fill="white"></path><path d="M103.015 13.3213V10.1755H89.6616V13.3213H94.3469V27.009H98.3294V13.3213H103.015Z" fill="white"></path><path d="M116.943 15.5301C116.943 11.4472 114.868 9.90778 110.651 9.90778C108.007 9.90778 105.932 10.7444 104.727 11.4472V14.7604C105.798 13.9572 108.141 13.0871 110.182 13.0871C112.09 13.0871 112.96 13.7564 112.96 15.5636V16.5006H112.324C106.233 16.5006 103.523 18.5086 103.523 21.9221C103.523 25.3357 105.598 27.2433 108.676 27.2433C111.019 27.2433 112.023 26.4735 112.793 25.6703H112.96C112.994 26.1054 113.127 26.6743 113.261 27.009H117.143C117.009 25.6369 116.943 24.2648 116.943 22.8927V15.5301ZM112.96 22.993C112.458 23.7293 111.521 24.3317 110.115 24.3317C108.442 24.3317 107.605 23.3277 107.605 21.8217C107.605 19.8472 108.978 19.1444 112.391 19.1444H112.96V22.993Z" fill="white"></path><path d="M126.771 27.009C130.72 27.009 133.063 25.3357 133.063 22.1229C133.063 19.9142 131.724 18.6424 129.482 18.2409C131.289 17.7389 132.427 16.4671 132.427 14.4592C132.427 11.5811 130.519 10.1755 126.838 10.1755H120.145V27.009H126.771ZM126.269 13.1875C127.708 13.1875 128.511 13.7899 128.511 15.0616C128.511 16.2329 127.641 16.9357 126.135 16.9357H124.127V13.1875H126.269ZM126.336 19.8472C128.043 19.8472 128.946 20.4496 128.946 21.8552C128.946 23.3946 127.942 23.997 126.336 23.997H124.127V19.8472H126.336Z" fill="white"></path><path d="M145.606 27.009H150.124L143.732 17.9397L149.355 10.1755H145.339L139.716 17.9397V10.1755H135.734V27.009H139.716V18.7428L145.606 27.009Z" fill="white"></path><path d="M163.678 15.5301C163.678 11.4472 161.603 9.90778 157.386 9.90778C154.742 9.90778 152.667 10.7444 151.462 11.4472V14.7604C152.533 13.9572 154.876 13.0871 156.917 13.0871C158.825 13.0871 159.695 13.7564 159.695 15.5636V16.5006H159.059C152.968 16.5006 150.258 18.5086 150.258 21.9221C150.258 25.3357 152.333 27.2433 155.411 27.2433C157.754 27.2433 158.758 26.4735 159.528 25.6703H159.695C159.729 26.1054 159.862 26.6743 159.996 27.009H163.878C163.744 25.6369 163.678 24.2648 163.678 22.8927V15.5301ZM159.695 22.993C159.193 23.7293 158.256 24.3317 156.85 24.3317C155.177 24.3317 154.34 23.3277 154.34 21.8217C154.34 19.8472 155.713 19.1444 159.126 19.1444H159.695V22.993Z" fill="white"></path></g><defs><clipPath id="clip0_1713_12937"><rect width="163.879" height="32" fill="white"></rect></clipPath></defs></svg>